# xmcd
#
# Track frame offsets:
#	150
#	30480
#	44970
#	57520
#	69245
#	78762
#	105800
#	120668
#	134160
#	149376
#
# Disc length: 2153 seconds
#
# Revision: 7
# Processed by: cddbd v1.5.2PL0 Copyright (c) Steve Scherf et al.
# Submitted via: EasyCDDAExtractor 16.0.6.1
#
DISCID=8b08670a
DTITLE=Poco - C-102 Rose of Cimarron  
DYEAR=1976
DGENRE=Country
TTITLE0=Rose of Cimarron
TTITLE1=Stealaway
TTITLE2=Just like me
TTITLE3=Company's comin'
TTITLE4=Slow poke
TTITLE5=Too many nights too long
TTITLE6=P.N.S. (When you come around)
TTITLE7=Starin' at the sky
TTITLE8=All alone together
TTITLE9=Tulsa turnaround
EXTD=YEAR: 1989
EXTT0=
EXTT1=
EXTT2=
EXTT3=
EXTT4=
EXTT5=
EXTT6=
EXTT7=
EXTT8=
EXTT9=
PLAYORDER=
